<svg width="85" height="84" viewBox="0 0 85 84" fill="none" xmlns="http://www.w3.org/2000/svg">
<path d="M19.5147 9.78482C17.9641 2.6839 26.9242 -1.78347 31.662 3.72841L36.5298 9.39146C39.3735 12.6998 44.5178 12.6293 47.2698 9.24417L51.9804 3.44976C56.5653 -2.18997 65.6446 2.02999 64.2892 9.17076L62.8966 16.5074C62.0831 20.7934 65.3457 24.7714 69.7081 24.8124L77.1753 24.8826C84.4433 24.9509 86.8048 34.6805 80.3769 38.073L73.7727 41.5585C69.9145 43.5948 68.8385 48.6259 71.5264 52.0621L76.1273 57.944C80.6054 63.6688 74.4709 71.5815 67.8108 68.6711L60.968 65.6809C56.9704 63.934 52.3661 66.2296 51.3554 70.4735L49.6254 77.738C47.9416 84.8085 37.9304 84.9458 36.0533 77.9241L34.1247 70.7098C32.9981 66.4953 28.3326 64.3268 24.3844 66.1826L17.6262 69.3593C11.0484 72.4512 4.6992 64.7098 9.01863 58.8643L13.4565 52.8584C16.0491 49.3498 14.8356 44.3502 10.923 42.4205L4.2257 39.1173C-2.29286 35.9024 -0.199048 26.1117 7.06429 25.8441L14.5268 25.5692C18.8865 25.4086 22.0387 21.3426 21.108 17.0805L19.5147 9.78482Z" fill="#CEFFD9"/>
</svg>
