<svg width="96" height="94" viewBox="0 0 96 94" fill="none" xmlns="http://www.w3.org/2000/svg">
<path d="M22.7708 9.4053C21.2201 2.30438 30.1802 -2.16298 34.918 3.3489L42.3756 12.0249C45.2193 15.3332 50.3636 15.2627 53.1156 11.8776L60.3324 3.00035C64.9173 -2.63938 73.9966 1.58059 72.6412 8.72136L70.5077 19.9613C69.6942 24.2473 72.9568 28.2253 77.3192 28.2663L88.7593 28.3738C96.0272 28.4421 98.3887 38.1717 91.9608 41.5642L81.8429 46.9042C77.9847 48.9404 76.9088 53.9715 79.5966 57.4077L86.6454 66.4189C91.1235 72.1438 84.989 80.0564 78.3288 77.1461L67.8455 72.565C63.8479 70.8181 59.2436 73.1137 58.233 77.3576L55.5825 88.487C53.8987 95.5575 43.8875 95.6948 42.0104 88.6731L39.0558 77.6206C37.9291 73.406 33.2636 71.2376 29.3154 73.0934L18.9617 77.9602C12.3838 81.0522 6.03465 73.3107 10.3541 67.4652L17.153 58.2641C19.7457 54.7554 18.5322 49.7558 14.6196 47.8261L4.35904 42.7656C-2.15952 39.5506 -0.0656852 29.7599 7.19765 29.4924L18.6305 29.0712C22.9901 28.9106 26.1424 24.8446 25.2116 20.5825L22.7708 9.4053Z" fill="#B9FFC8"/>
</svg>
